<?xml version="1.0" encoding="us-ascii" standalone="no"?><svg xmlns="http://www.w3.org/2000/svg" xmlns:xlink="http://www.w3.org/1999/xlink" contentStyleType="text/css" height="740px" preserveAspectRatio="none" style="width:339px;height:740px;background:#FFFFFF;" version="1.1" viewBox="0 0 339 740" width="339px" zoomAndPan="magnify"><defs/><g><ellipse cx="196.5" cy="20" fill="#222222" rx="10" ry="10" style="stroke:#222222;stroke-width:1.0;"/><rect fill="#F1F1F1" height="33.9688" rx="12.5" ry="12.5" style="stroke:#181818;stroke-width:0.5;" width="68" x="162.5" y="50"/><text fill="#000000" font-family="sans-serif" font-size="12" lengthAdjust="spacing" textLength="48" x="172.5" y="71.1387">&#29992;&#25143;&#36755;&#20837;</text><rect fill="#F1F1F1" height="33.9688" rx="12.5" ry="12.5" style="stroke:#181818;stroke-width:0.5;" width="98" x="147.5" y="103.9688"/><text fill="#000000" font-family="sans-serif" font-size="12" lengthAdjust="spacing" textLength="78" x="157.5" y="125.1074">ChatSession</text><rect fill="#F1F1F1" height="33.9688" rx="12.5" ry="12.5" style="stroke:#181818;stroke-width:0.5;" width="171" x="111" y="157.9375"/><text fill="#000000" font-family="sans-serif" font-size="12" lengthAdjust="spacing" textLength="151" x="121" y="179.0762">LLMClient &#21521; LLM &#21457;&#36215;&#35831;&#27714;</text><rect fill="#F1F1F1" height="33.9688" rx="12.5" ry="12.5" style="stroke:#181818;stroke-width:0.5;" width="94" x="149.5" y="211.9063"/><text fill="#000000" font-family="sans-serif" font-size="12" lengthAdjust="spacing" textLength="74" x="159.5" y="233.0449">LLM &#36820;&#22238;&#21709;&#24212;</text><polygon fill="#F1F1F1" points="133,265.875,260,265.875,272,277.875,260,289.875,133,289.875,121,277.875,133,265.875" style="stroke:#181818;stroke-width:0.5;"/><text fill="#000000" font-family="sans-serif" font-size="11" lengthAdjust="spacing" textLength="127" x="133" y="281.6831">&#21709;&#24212;&#20013;&#26159;&#21542;&#21253;&#21547;&#24037;&#20855;&#35843;&#29992;?</text><text fill="#000000" font-family="sans-serif" font-size="11" lengthAdjust="spacing" textLength="11" x="110" y="275.2808">&#26159;</text><text fill="#000000" font-family="sans-serif" font-size="11" lengthAdjust="spacing" textLength="11" x="272" y="275.2808">&#21542;</text><rect fill="#F1F1F1" height="33.9688" rx="12.5" ry="12.5" style="stroke:#181818;stroke-width:0.5;" width="174" x="24" y="299.875"/><text fill="#000000" font-family="sans-serif" font-size="12" lengthAdjust="spacing" textLength="154" x="34" y="321.0137">ChatSession &#35299;&#26512;&#24037;&#20855;&#35843;&#29992;</text><rect fill="#F1F1F1" height="33.9688" rx="12.5" ry="12.5" style="stroke:#181818;stroke-width:0.5;" width="112" x="55" y="353.8438"/><text fill="#000000" font-family="sans-serif" font-size="12" lengthAdjust="spacing" textLength="92" x="65" y="374.9824">&#26597;&#25214;&#23545;&#24212; Server</text><rect fill="#F1F1F1" height="33.9688" rx="12.5" ry="12.5" style="stroke:#181818;stroke-width:0.5;" width="112" x="55" y="407.8125"/><text fill="#000000" font-family="sans-serif" font-size="12" lengthAdjust="spacing" textLength="92" x="65" y="428.9512">Server &#25191;&#34892;&#24037;&#20855;</text><rect fill="#F1F1F1" height="33.9688" rx="12.5" ry="12.5" style="stroke:#181818;stroke-width:0.5;" width="116" x="53" y="461.7813"/><text fill="#000000" font-family="sans-serif" font-size="12" lengthAdjust="spacing" textLength="96" x="63" y="482.9199">&#36820;&#22238;&#24037;&#20855;&#25191;&#34892;&#32467;&#26524;</text><rect fill="#F1F1F1" height="33.9688" rx="12.5" ry="12.5" style="stroke:#181818;stroke-width:0.5;" width="200" x="11" y="515.75"/><text fill="#000000" font-family="sans-serif" font-size="12" lengthAdjust="spacing" textLength="180" x="21" y="536.8887">ChatSession &#23558;&#32467;&#26524;&#21457;&#36865;&#32473; LLM</text><rect fill="#F1F1F1" height="33.9688" rx="12.5" ry="12.5" style="stroke:#181818;stroke-width:0.5;" width="118" x="52" y="569.7188"/><text fill="#000000" font-family="sans-serif" font-size="12" lengthAdjust="spacing" textLength="98" x="62" y="590.8574">LLM &#36820;&#22238;&#26368;&#32456;&#31572;&#26696;</text><rect fill="#F1F1F1" height="33.9688" rx="12.5" ry="12.5" style="stroke:#181818;stroke-width:0.5;" width="92" x="236" y="299.875"/><text fill="#000000" font-family="sans-serif" font-size="12" lengthAdjust="spacing" textLength="72" x="246" y="321.0137">&#30452;&#25509;&#36820;&#22238;&#31572;&#26696;</text><polygon fill="#F1F1F1" points="196.5,609.6875,208.5,621.6875,196.5,633.6875,184.5,621.6875,196.5,609.6875" style="stroke:#181818;stroke-width:0.5;"/><rect fill="#F1F1F1" height="33.9688" rx="12.5" ry="12.5" style="stroke:#181818;stroke-width:0.5;" width="104" x="144.5" y="653.6875"/><text fill="#000000" font-family="sans-serif" font-size="12" lengthAdjust="spacing" textLength="84" x="154.5" y="674.8262">&#36755;&#20986;&#31572;&#26696;&#32473;&#29992;&#25143;</text><ellipse cx="196.5" cy="718.6563" fill="none" rx="11" ry="11" style="stroke:#222222;stroke-width:1.0;"/><ellipse cx="196.5" cy="718.6563" fill="#222222" rx="6" ry="6" style="stroke:#111111;stroke-width:1.0;"/><line style="stroke:#181818;stroke-width:1.0;" x1="196.5" x2="196.5" y1="30" y2="50"/><polygon fill="#181818" points="192.5,40,196.5,50,200.5,40,196.5,44" style="stroke:#181818;stroke-width:1.0;"/><line style="stroke:#181818;stroke-width:1.0;" x1="196.5" x2="196.5" y1="83.9688" y2="103.9688"/><polygon fill="#181818" points="192.5,93.9688,196.5,103.9688,200.5,93.9688,196.5,97.9688" style="stroke:#181818;stroke-width:1.0;"/><line style="stroke:#181818;stroke-width:1.0;" x1="196.5" x2="196.5" y1="137.9375" y2="157.9375"/><polygon fill="#181818" points="192.5,147.9375,196.5,157.9375,200.5,147.9375,196.5,151.9375" style="stroke:#181818;stroke-width:1.0;"/><line style="stroke:#181818;stroke-width:1.0;" x1="196.5" x2="196.5" y1="191.9063" y2="211.9063"/><polygon fill="#181818" points="192.5,201.9063,196.5,211.9063,200.5,201.9063,196.5,205.9063" style="stroke:#181818;stroke-width:1.0;"/><line style="stroke:#181818;stroke-width:1.0;" x1="111" x2="111" y1="333.8438" y2="353.8438"/><polygon fill="#181818" points="107,343.8438,111,353.8438,115,343.8438,111,347.8438" style="stroke:#181818;stroke-width:1.0;"/><line style="stroke:#181818;stroke-width:1.0;" x1="111" x2="111" y1="387.8125" y2="407.8125"/><polygon fill="#181818" points="107,397.8125,111,407.8125,115,397.8125,111,401.8125" style="stroke:#181818;stroke-width:1.0;"/><line style="stroke:#181818;stroke-width:1.0;" x1="111" x2="111" y1="441.7813" y2="461.7813"/><polygon fill="#181818" points="107,451.7813,111,461.7813,115,451.7813,111,455.7813" style="stroke:#181818;stroke-width:1.0;"/><line style="stroke:#181818;stroke-width:1.0;" x1="111" x2="111" y1="495.75" y2="515.75"/><polygon fill="#181818" points="107,505.75,111,515.75,115,505.75,111,509.75" style="stroke:#181818;stroke-width:1.0;"/><line style="stroke:#181818;stroke-width:1.0;" x1="111" x2="111" y1="549.7188" y2="569.7188"/><polygon fill="#181818" points="107,559.7188,111,569.7188,115,559.7188,111,563.7188" style="stroke:#181818;stroke-width:1.0;"/><line style="stroke:#181818;stroke-width:1.0;" x1="121" x2="111" y1="277.875" y2="277.875"/><line style="stroke:#181818;stroke-width:1.0;" x1="111" x2="111" y1="277.875" y2="299.875"/><polygon fill="#181818" points="107,289.875,111,299.875,115,289.875,111,293.875" style="stroke:#181818;stroke-width:1.0;"/><line style="stroke:#181818;stroke-width:1.0;" x1="272" x2="282" y1="277.875" y2="277.875"/><line style="stroke:#181818;stroke-width:1.0;" x1="282" x2="282" y1="277.875" y2="299.875"/><polygon fill="#181818" points="278,289.875,282,299.875,286,289.875,282,293.875" style="stroke:#181818;stroke-width:1.0;"/><line style="stroke:#181818;stroke-width:1.0;" x1="111" x2="111" y1="603.6875" y2="621.6875"/><line style="stroke:#181818;stroke-width:1.0;" x1="111" x2="184.5" y1="621.6875" y2="621.6875"/><polygon fill="#181818" points="174.5,617.6875,184.5,621.6875,174.5,625.6875,178.5,621.6875" style="stroke:#181818;stroke-width:1.0;"/><line style="stroke:#181818;stroke-width:1.0;" x1="282" x2="282" y1="333.8438" y2="621.6875"/><line style="stroke:#181818;stroke-width:1.0;" x1="282" x2="208.5" y1="621.6875" y2="621.6875"/><polygon fill="#181818" points="218.5,617.6875,208.5,621.6875,218.5,625.6875,214.5,621.6875" style="stroke:#181818;stroke-width:1.0;"/><line style="stroke:#181818;stroke-width:1.0;" x1="196.5" x2="196.5" y1="245.875" y2="265.875"/><polygon fill="#181818" points="192.5,255.875,196.5,265.875,200.5,255.875,196.5,259.875" style="stroke:#181818;stroke-width:1.0;"/><line style="stroke:#181818;stroke-width:1.0;" x1="196.5" x2="196.5" y1="633.6875" y2="653.6875"/><polygon fill="#181818" points="192.5,643.6875,196.5,653.6875,200.5,643.6875,196.5,647.6875" style="stroke:#181818;stroke-width:1.0;"/><line style="stroke:#181818;stroke-width:1.0;" x1="196.5" x2="196.5" y1="687.6563" y2="707.6563"/><polygon fill="#181818" points="192.5,697.6563,196.5,707.6563,200.5,697.6563,196.5,701.6563" style="stroke:#181818;stroke-width:1.0;"/><!--SRC=[NP3FIiD04CRl-nHpR5yXU_3GQptr2GfkQQ2aaYoUgn9DeMfASb1Q8aNI2b9IGOasK5_6sLtVmiskQF4syyrl_dmJyAxFYIFJHn6LQfTWc5FYjFfTtc51u0uzdRNRXws1opmE64z1Pu0tK_LQgg8KpsSM0FMHuYp3v0gtAILk3nes_dnRYzi2uoLEGeoViCmnBDNcN6yyQ0BlCmyQ6cWIWFsre5OF8eltSLeZuZuNunqMxteqT9X_mdoZsn34UAKM4zjbz9-pZ62Biaf4DgV_z-7cmbQqjw_HgQpkQgS6-xCdvYDPHNATYaL42Hi4JDkCb-PuENiHrxdbVWdloEqHf_xhvTQAUh1zDYK17nv_0m00]--></g></svg>